#!OML:ASF F:\VICON\USERDATA\INSTALL\rory3\rory3.ASF
:FULLY-SPECIFIED
:DEGREES
66
root 4.49507 17.5815 2.18489 18.7696 2.83981 -1.40517
lowerback -10.2415 1.61601 13.8993
upperback -13.6178 1.63206 0.584264
thorax -8.89843 -0.456804 -7.06021
lowerneck -1.41186 18.7586 10.2193
upperneck 6.03528 24.3614 5.19509
head 2.74563 12.4566 0.922001
rclavicle -2.5842e-015 -8.74653e-015
rhumerus 0.796003 -24.7641 30.8185
rradius 116.807
rwrist -71.3414
rhand -2.20276 -44.3013
rfingers 7.12502
rthumb 23.4789 -72.8886
lclavicle -2.5842e-015 -8.74653e-015
lhumerus 36.1196 33.4861 -8.78367
lradius 28.9094
lwrist 33.4531
lhand -25.2294 -17.9789
lfingers 7.12502
lthumb 1.29002 11.997
rfemur -3.32139 11.1435 -2.6742
rtibia 14.8503
rfoot 20.7942 -18.6984
rtoes -17.3442
lfemur -15.4265 -0.339436 -28.1667
ltibia 13.1077
lfoot -14.2878 7.80798
ltoes 9.94216
67
root 4.51408 17.5779 2.19959 18.8156 2.94804 -1.34856
lowerback -10.5037 1.60119 14.0649
upperback -13.5632 1.5529 0.539211
thorax -8.7102 -0.499425 -7.20079
lowerneck -1.49918 18.792 10.1791
upperneck 6.2069 24.3845 5.27785
head 2.80435 12.4771 0.972635
rclavicle -1.98785e-015 -1.59028e-014
rhumerus 0.805438 -24.8745 30.7964
rradius 116.892
rwrist -71.5711
rhand -2.62581 -44.2634
rfingers 7.12502
rthumb 23.073 -72.902
lclavicle -1.98785e-015 -1.59028e-014
lhumerus 35.821 33.4004 -9.12336
lradius 29.028
lwrist 33.6741
lhand -24.9227 -18.0228
lfingers 7.12502
lthumb 1.58622 11.951
rfemur -3.13413 10.7692 -2.76873
rtibia 14.6457
rfoot 20.8198 -18.5592
rtoes -17.204
lfemur -15.4536 -0.399196 -28.2676
ltibia 13.2958
lfoot -14.5531 7.59874
ltoes 11.0889
68
root 4.52098 17.5716 2.21309 18.9246 2.91563 -1.27959
lowerback -10.6793 1.60315 14.028
upperback -13.65 1.5331 0.511611
thorax -8.71726 -0.512673 -7.20871
lowerneck -1.19879 18.7879 10.2626
upperneck 6.19009 24.4183 5.24656
head 2.76182 12.4926 0.923326
rclavicle -1.68967e-014 1.27222e-014
rhumerus 0.899282 -24.6948 30.753
rradius 117.009
rwrist -71.6997
rhand -3.08359 -44.1858
rfingers 7.12502
rthumb 22.6337 -72.8787
lclavicle -1.68967e-014 1.27222e-014
lhumerus 35.5499 33.0318 -9.49327
lradius 29.1583
lwrist 34.0817
lhand -24.8343 -17.705
lfingers 7.12502
lthumb 1.67164 12.2682
rfemur -3.06273 10.6948 -2.87705
rtibia 14.3976
rfoot 20.8923 -18.61
rtoes -17.1123
lfemur -15.6031 -0.364401 -28.3928
ltibia 13.485
lfoot -14.669 7.62559
ltoes 10.7263
69
root 4.52137 17.5701 2.22027 18.9816 2.77672 -1.27999
lowerback -10.7649 1.62116 13.9325
upperback -13.6937 1.55109 0.534607
thorax -8.71249 -0.495408 -7.1278
lowerneck -0.848209 18.7695 10.3501
upperneck 6.02648 24.4508 5.12159
head 2.6734 12.4986 0.831548
rclavicle -1.11319e-014 7.95139e-015
rhumerus 1.055 -24.5537 30.5497
rradius 117.003
rwrist -71.3247
rhand -3.2687 -44.021
rfingers 7.12502
rthumb 22.4561 -72.7355
lclavicle -1.11319e-014 7.95139e-015
lhumerus 35.4383 32.8372 -9.60929
lradius 29.189
lwrist 34.2891
lhand -24.6995 -17.6083
lfingers 7.12502
lthumb 1.80176 12.3638
rfemur -3.08017 10.9172 -2.90232
rtibia 14.2709
rfoot 20.8922 -18.757
rtoes -16.5598
lfemur -15.6991 -0.39132 -28.4037
ltibia 13.5689
lfoot -14.7322 7.74783
ltoes 10.8291
70
root 4.52358 17.5689 2.22682 18.9483 2.70691 -1.37247
lowerback -10.819 1.63533 13.9698
upperback -13.6432 1.55549 0.570413
thorax -8.62256 -0.485998 -7.10776
lowerneck -0.820601 18.7183 10.5337
upperneck 6.06635 24.3887 4.90541
head 2.73676 12.4674 0.753735
rclavicle 1.09332e-014 -2.70347e-014
rhumerus 1.14543 -24.4698 30.3361
rradius 116.957
rwrist -70.9055
rhand -3.67389 -43.7726
rfingers 7.12502
rthumb 22.0671 -72.5335
lclavicle 1.09332e-014 -2.70347e-014
lhumerus 35.565 32.994 -9.40404
lradius 29.0894
lwrist 34.042
lhand -24.8263 -17.6655
lfingers 7.12502
lthumb 1.67933 12.3076
rfemur -3.07406 11.1289 -2.8089
rtibia 14.334
rfoot 20.6529 -18.7661
rtoes -15.8117
lfemur -15.6385 -0.392741 -28.3103
ltibia 13.5146
lfoot -14.7248 7.79576
ltoes 11.1465
71
root 4.52689 17.5682 2.23164 18.896 2.70195 -1.51661
lowerback -10.7081 1.65316 14.1095
upperback -13.6354 1.59118 0.580203
thorax -8.67396 -0.483649 -7.1748
lowerneck -1.07256 18.6286 10.707
upperneck 6.29983 24.2267 4.75617
head 2.90409 12.3976 0.734548
rclavicle 1.0138e-014 -2.78299e-014
rhumerus 1.09567 -24.472 30.3385
rradius 116.955
rwrist -70.9411
rhand -3.90883 -43.8712
rfingers 7.12502
rthumb 21.8415 -72.6586
lclavicle 1.0138e-014 -2.78299e-014
lhumerus 35.3622 32.7422 -9.79656
lradius 29.1276
lwrist 34.1989
lhand -25.0225 -17.3513
lfingers 7.12502
lthumb 1.4898 12.6233
rfemur -3.09383 11.2351 -2.63668
rtibia 14.49
rfoot 20.3818 -18.7124
rtoes -15.9719
lfemur -15.5168 -0.282423 -28.173
ltibia 13.3705
lfoot -14.6428 7.74027
ltoes 11.2842
72
root 4.52622 17.5651 2.23331 18.8435 2.60971 -1.46904
lowerback -10.6663 1.67465 14.0402
upperback -13.6011 1.62358 0.522218
thorax -8.64489 -0.461124 -7.19997
lowerneck -1.05478 18.5928 10.7433
upperneck 6.25178 24.1839 4.72299
head 2.89267 12.3742 0.713898
rclavicle -1.68967e-014 1.43125e-014
rhumerus 1.00042 -24.6196 30.3985
rradius 116.974
rwrist -71.1497
rhand -3.33615 -44.2878
rfingers 7.12502
rthumb 22.3913 -73.0101
lclavicle -1.68967e-014 1.43125e-014
lhumerus 34.8052 32.1456 -10.7161
lradius 29.3575
lwrist 35.0041
lhand -25.0488 -17.1343
lfingers 7.12502
lthumb 1.46445 12.8405
rfemur -3.16651 11.3181 -2.68428
rtibia 14.6288
rfoot 20.247 -18.7182
rtoes -16.6047
lfemur -15.4278 -0.0239864 -28.2882
ltibia 13.2506
lfoot -14.4796 7.71939
ltoes 10.0111
73
root 4.52646 17.5597 2.23269 18.805 2.52691 -1.30553
lowerback -10.8291 1.6759 13.8894
upperback -13.4911 1.5898 0.435126
thorax -8.42194 -0.449202 -7.21134
lowerneck -0.834581 18.6283 10.7312
upperneck 6.0599 24.268 4.74351
head 2.78394 12.407 0.686145
rclavicle 8.34896e-015 4.77083e-015
rhumerus 0.871878 -24.7515 30.4618
rradius 117.03
rwrist -71.2436
rhand -2.75187 -44.4896
rfingers 7.12502
rthumb 22.9521 -73.1433
lclavicle 8.34896e-015 4.77083e-015
lhumerus 34.77 32.2806 -10.7674
lradius 29.3815
lwrist 35.044
lhand -25.2143 -17.5984
lfingers 7.12502
lthumb 1.30457 12.3773
rfemur -3.26836 11.2981 -2.84893
rtibia 14.8123
rfoot 20.4025 -18.756
rtoes -17.0363
lfemur -15.4101 0.0707441 -28.5086
ltibia 13.1394
lfoot -14.245 7.79699
ltoes 8.53006
74
root 4.52881 17.5629 2.23047 18.8421 2.45978 -1.20963
lowerback -10.7602 1.64111 13.7713
upperback -13.5482 1.56368 0.403648
thorax -8.5293 -0.463873 -7.18285
lowerneck -0.471137 18.6322 10.8344
upperneck 5.88742 24.3319 4.63922
head 2.69033 12.4292 0.598846
rclavicle -1.33186e-014 9.54166e-015
rhumerus 0.789126 -24.6859 30.5889
rradius 117.147
rwrist -71.3139
rhand -2.85354 -44.4305
rfingers 7.12502
rthumb 22.8545 -73.0963
lclavicle -1.33186e-014 9.54166e-015
lhumerus 35.0818 32.6229 -10.2477
lradius 29.2252
lwrist 34.2814
lhand -25.2973 -18.0796
lfingers 7.12502
lthumb 1.22439 11.8967
rfemur -3.48981 11.2667 -2.94941
rtibia 15.0882
rfoot 20.8134 -18.9269
rtoes -17.2922
lfemur -15.4161 -0.216883 -28.5555
ltibia 12.9463
lfoot -14.1102 7.86798
ltoes 9.58674
75
root 4.52888 17.5716 2.22352 18.8954 2.39324 -1.18592
lowerback -10.3929 1.56196 13.6738
upperback -13.7227 1.54016 0.431928
thorax -8.94709 -0.501906 -7.10421
lowerneck -0.0558934 18.6425 11.0255
upperneck 5.71305 24.4161 4.40526
head 2.61878 12.4602 0.464458
rclavicle -9.93923e-015 2.94201e-014
rhumerus 0.911193 -24.5819 30.5516
rradius 117.211
rwrist -71.2541
rhand -3.12036 -44.2478
rfingers 7.12502
rthumb 22.5985 -72.945
lclavicle -9.93923e-015 2.94201e-014
lhumerus 35.0667 32.5519 -10.1836
lradius 29.1544
lwrist 33.7078
lhand -25.0698 -18.356
lfingers 7.12502
lthumb 1.44412 11.6188
rfemur -3.73087 11.3631 -2.97197
rtibia 15.3286
rfoot 21.0052 -19.1414
rtoes -17.8385
lfemur -15.4267 -0.54899 -28.4958
ltibia 12.7758
lfoot -13.9994 7.96109
ltoes 11.0799
76
root 4.53205 17.5729 2.21345 18.8619 2.4295 -1.25974
lowerback -10.1417 1.50223 13.7941
upperback -13.7103 1.49766 0.45935
thorax -9.09107 -0.542282 -7.14629
lowerneck -0.375066 18.7076 10.9935
upperneck 5.94326 24.4504 4.41407
head 2.75001 12.4879 0.524527
rclavicle 9.93923e-015 1.66979e-014
rhumerus 0.987887 -24.6232 30.5068
rradius 117.232
rwrist -71.2281
rhand -3.28116 -44.1554
rfingers 7.12502
rthumb 22.4441 -72.8713
lclavicle 9.93923e-015 1.66979e-014
lhumerus 34.7294 32.4769 -10.5991
lradius 29.2104
lwrist 33.7389
lhand -24.3545 -18.4999
lfingers 7.12502
lthumb 2.13503 11.4692
rfemur -3.78909 11.4697 -2.85784
rtibia 15.4438
rfoot 20.7077 -19.1562
rtoes -18.1346
lfemur -15.4262 -0.517863 -28.4337
ltibia 12.7283
lfoot -13.7407 8.05687
ltoes 9.85618
77
root 4.53655 17.57 2.20959 18.8069 2.4451 -1.28954
lowerback -10.0956 1.50632 13.8876
upperback -13.59 1.49532 0.439991
thorax -8.97796 -0.540048 -7.22075
lowerneck -0.902085 18.6752 10.9131
upperneck 6.16231 24.3296 4.40877
head 2.90608 12.4372 0.598596
rclavicle 7.7526e-015 -1.11319e-014
rhumerus 0.884461 -24.6662 30.6351
rradius 117.293
rwrist -71.3622
rhand -3.59314 -44.1823
rfingers 7.12502
rthumb 22.1446 -72.9341
lclavicle 7.7526e-015 -1.11319e-014
lhumerus 34.4297 32.3958 -11.007
lradius 29.3198
lwrist 34.2109
lhand -23.9334 -18.4112
lfingers 7.12502
lthumb 2.54172 11.5535
rfemur -3.73224 11.5644 -2.80967
rtibia 15.4123
rfoot 20.8662 -19.3803
rtoes -18.494
lfemur -15.4296 -0.284145 -28.4724
ltibia 12.7612
lfoot -13.5671 8.03865
ltoes 8.02071
78
root 4.54068 17.5707 2.21538 18.7794 2.38499 -1.33544
lowerback -10.07 1.54149 13.941
upperback -13.5762 1.54199 0.425405
thorax -8.96698 -0.521334 -7.26548
lowerneck -0.921213 18.5278 11.0672
upperneck 6.14198 24.1397 4.15449
head 2.95477 12.339 0.504212
rclavicle 2.3059e-014 -2.62396e-014
rhumerus 0.879147 -24.5616 30.6719
rradius 117.337
rwrist -71.3041
rhand -3.81862 -44.1408
rfingers 7.12502
rthumb 21.9281 -72.9181
lclavicle 2.3059e-014 -2.62396e-014
lhumerus 34.73 32.6677 -10.5245
lradius 29.2139
lwrist 33.7945
lhand -23.8266 -18.392
lfingers 7.12502
lthumb 2.64485 11.5714
rfemur -3.66347 11.6536 -2.77541
rtibia 15.2814
rfoot 20.5682 -19.2621
rtoes -18.4178
lfemur -15.4854 -0.245155 -28.4309
ltibia 12.8082
lfoot -13.5419 8.02508
ltoes 8.35889
